<svg xmlns="http://www.w3.org/2000/svg" style="display: none">
  <symbol id="phone-icon" viewBox="0 0 24 24">
    <path
      fill-rule="evenodd"
      clip-rule="evenodd"
      d="M2.01179 5.6023C1.833 3.50023 3.61562 2 5.51149 2H7.88582C9.01903 2 10.0409 2.68182 10.476 3.72819L11.6458 6.54152C12.0463 7.50457 11.8793 8.61027 11.2125 9.41219L9.96008 10.9182C10.7682 12.1458 11.7861 13.2527 12.9454 14.169L14.5826 12.8019C15.3859 12.1311 16.4957 11.9632 17.4615 12.3664L20.2637 13.5364C21.308 13.9725 21.988 14.9933 21.988 16.125C21.988 16.5154 21.991 16.906 21.9939 17.3009L21.9939 17.3025C21.9969 17.6956 21.9999 18.093 21.9999 18.4913C21.9999 20.387 20.4997 22.1699 18.3974 21.9904C9.8576 21.2613 2.73993 14.1628 2.01179 5.6023ZM5.51149 4C4.56794 4 3.94275 4.70566 4.0046 5.43279C4.65004 13.0211 10.9964 19.3513 18.5675 19.9977C19.2943 20.0597 19.9999 19.4349 19.9999 18.4913C19.9999 18.1013 19.997 17.7109 19.994 17.316L19.994 17.3135C19.991 16.9206 19.988 16.5234 19.988 16.125C19.988 15.8002 19.7928 15.5072 19.4931 15.382L16.6909 14.212C16.4137 14.0963 16.0951 14.1444 15.8645 14.337L13.0325 16.7019L12.405 16.2603C10.5706 14.9694 8.99858 13.2704 7.86729 11.3384L7.51284 10.733L9.67471 8.13339C9.86613 7.90321 9.91405 7.58583 9.79911 7.30939L8.62931 4.49606C8.50443 4.19571 8.21109 4 7.88582 4H5.51149Z"
      fill="black"
    />
  </symbol>
  <symbol id="email-icon" viewBox="0 0 24 24">
    <path
      fill-rule="evenodd"
      clip-rule="evenodd"
      d="M23 6V18C23 19.6523 21.6523 21 20 21H4C2.34772 21 1 19.6523 1 18V6C1 4.34315 2.34315 3 4 3H20C21.6569 3 23 4.34315 23 6ZM3.10658 5.55395C3.27196 5.22692 3.61204 5 4 5H20C20.388 5 20.728 5.22692 20.8934 5.55395L12 11.7793L3.10658 5.55395ZM3 7.92066L10.8531 13.4178C11.5417 13.8999 12.4583 13.8999 13.1469 13.4178L21 7.92066V18C21 18.5477 20.5477 19 20 19H4C3.45228 19 3 18.5477 3 18V7.92066Z"
      fill="black"
    />
  </symbol>
  <symbol id="location-icon" viewBox="0 0 24 24">
    <path
      d="M11.3856 23.789C11.3856 23.789 11.3861 23.7894 12 23L12.6139 23.7894C12.2528 24.0702 11.7467 24.0699 11.3856 23.789Z"
      fill="black"
    />
    <path
      fill-rule="evenodd"
      clip-rule="evenodd"
      d="M12 6C9.79086 6 8 7.79086 8 10C8 12.2091 9.79086 14 12 14C14.2091 14 16 12.2091 16 10C16 7.79086 14.2091 6 12 6ZM10 10C10 8.89543 10.8954 8 12 8C13.1046 8 14 8.89543 14 10C14 11.1046 13.1046 12 12 12C10.8954 12 10 11.1046 10 10Z"
      fill="black"
    />
    <path
      fill-rule="evenodd"
      clip-rule="evenodd"
      d="M11.3856 23.789L12 23C12.6139 23.7894 12.615 23.7885 12.615 23.7885L12.6169 23.7871L12.6231 23.7822L12.645 23.765C12.6638 23.7501 12.6909 23.7287 12.7258 23.7008C12.7954 23.6451 12.8961 23.5637 13.0233 23.4587C13.2776 23.2488 13.6385 22.944 14.0706 22.5599C14.9334 21.793 16.0867 20.7041 17.2433 19.419C18.397 18.1371 19.5731 16.639 20.4653 15.0528C21.3524 13.4758 22 11.7393 22 10C22 7.34784 20.9464 4.8043 19.0711 2.92893C17.1957 1.05357 14.6522 0 12 0C9.34784 0 6.8043 1.05357 4.92893 2.92893C3.05357 4.8043 2 7.34784 2 10C2 11.7393 2.64762 13.4758 3.53467 15.0528C4.42693 16.639 5.60303 18.1371 6.75671 19.419C7.91329 20.7041 9.06662 21.793 9.92939 22.5599C10.3615 22.944 10.7224 23.2488 10.9767 23.4587C11.1039 23.5637 11.2046 23.6451 11.2742 23.7008C11.3091 23.7287 11.3362 23.7501 11.355 23.765L11.3769 23.7822L11.3831 23.7871L11.3856 23.789ZM6.34315 4.34315C7.84344 2.84285 9.87827 2 12 2C14.1217 2 16.1566 2.84285 17.6569 4.34315C19.1571 5.84344 20 7.87827 20 10C20 11.2607 19.5226 12.6492 18.7222 14.0722C17.9269 15.486 16.853 16.8629 15.7567 18.081C14.6633 19.2959 13.5666 20.332 12.7419 21.0651C12.4576 21.3178 12.2065 21.5337 12 21.7078C11.7935 21.5337 11.5424 21.3178 11.2581 21.0651C10.4334 20.332 9.33671 19.2959 8.24329 18.081C7.14697 16.8629 6.07307 15.486 5.27783 14.0722C4.47738 12.6492 4 11.2607 4 10C4 7.87827 4.84285 5.84344 6.34315 4.34315Z"
      fill="black"
    />
  </symbol>
  
  <symbol id="menu-icon" viewBox="0 0 24 24">
    <path
      d="M2 5.5C2 4.94772 2.44772 4.5 3 4.5H21C21.5523 4.5 22 4.94772 22 5.5V6.5C22 7.05228 21.5523 7.5 21 7.5H3C2.44772 7.5 2 7.05228 2 6.5V5.5Z"
      fill="black"
    />
    <path
      d="M2 11.5C2 10.9477 2.44772 10.5 3 10.5H21C21.5523 10.5 22 10.9477 22 11.5V12.5C22 13.0523 21.5523 13.5 21 13.5H3C2.44772 13.5 2 13.0523 2 12.5V11.5Z"
      fill="black"
    />
    <path
      d="M3 16.5C2.44772 16.5 2 16.9477 2 17.5V18.5C2 19.0523 2.44772 19.5 3 19.5H21C21.5523 19.5 22 19.0523 22 18.5V17.5C22 16.9477 21.5523 16.5 21 16.5H3Z"
      fill="black"
    />
  </symbol>

  <symbol id="arrowa-icon" viewBox="0 0 24 24">
    <path
      fill-rule="evenodd"
      clip-rule="evenodd"
      d="M2.01179 5.6023C1.833 3.50023 3.61562 2 5.51149 2H7.88582C9.01903 2 10.0409 2.68182 10.476 3.72819L11.6458 6.54152C12.0463 7.50457 11.8793 8.61027 11.2125 9.41219L9.96008 10.9182C10.7682 12.1458 11.7861 13.2527 12.9454 14.169L14.5826 12.8019C15.3859 12.1311 16.4957 11.9632 17.4615 12.3664L20.2637 13.5364C21.308 13.9725 21.988 14.9933 21.988 16.125C21.988 16.5154 21.991 16.906 21.9939 17.3009L21.9939 17.3025C21.9969 17.6956 21.9999 18.093 21.9999 18.4913C21.9999 20.387 20.4997 22.1699 18.3974 21.9904C9.8576 21.2613 2.73993 14.1628 2.01179 5.6023ZM5.51149 4C4.56794 4 3.94275 4.70566 4.0046 5.43279C4.65004 13.0211 10.9964 19.3513 18.5675 19.9977C19.2943 20.0597 19.9999 19.4349 19.9999 18.4913C19.9999 18.1013 19.997 17.7109 19.994 17.316L19.994 17.3135C19.991 16.9206 19.988 16.5234 19.988 16.125C19.988 15.8002 19.7928 15.5072 19.4931 15.382L16.6909 14.212C16.4137 14.0963 16.0951 14.1444 15.8645 14.337L13.0325 16.7019L12.405 16.2603C10.5706 14.9694 8.99858 13.2704 7.86729 11.3384L7.51284 10.733L9.67471 8.13339C9.86613 7.90321 9.91405 7.58583 9.79911 7.30939L8.62931 4.49606C8.50443 4.19571 8.21109 4 7.88582 4H5.51149Z"
      fill="black"
    />
  </symbol>
</svg>
